<svg width="16" height="16" viewBox="0 0 16 16" fill="none" xmlns="http://www.w3.org/2000/svg">
<path d="M5.82178 2.57161L5.95902 2.72876C3.49341 3.40972 2.3562 4.44426 2.3562 4.44426L2.36353 4.44059L2.53378 4.35574C2.67259 4.28816 2.88788 4.18602 3.16445 4.06502C6.32097 2.73976 10.1433 2.73976 13.3972 4.44478C13.3972 4.44478 12.315 3.46263 9.98612 2.78167L10.1778 2.57214L10.2323 2.57266C10.5539 2.57895 12.2516 2.67428 14.0274 3.94716C14.0274 3.94716 16.0001 7.36507 16.0001 11.5818C16.0001 11.5818 14.8356 13.4806 11.8085 13.5723C11.8085 13.5723 11.5041 13.2245 11.1741 12.8342L10.9934 12.619C10.9636 12.5828 10.9337 12.5472 10.9044 12.5116C12.699 12.027 13.3836 10.9532 13.3836 10.9532C12.8221 11.3068 12.2878 11.5556 11.8085 11.7258C8.8573 12.9107 5.57244 12.5053 3.26031 11.2675C3.23255 11.2497 2.89992 11.0747 2.69878 10.9401L2.71292 10.9611C2.81611 11.1109 3.50127 12.0291 5.09629 12.4854L5.00672 12.5933L4.82443 12.8112C4.49076 13.2082 4.17804 13.5723 4.17804 13.5723C1.15037 13.4806 7.08316e-05 11.5818 7.08316e-05 11.5818C7.08316e-05 7.36507 1.97277 3.94716 1.97277 3.94716C3.74798 2.67428 5.44568 2.57895 5.76782 2.57266L5.82178 2.57161ZM5.43834 7.45621C4.65733 7.45621 4.04132 8.11098 4.04132 8.9098C4.04132 9.70863 4.67147 10.3634 5.43834 10.3634C6.21935 10.3634 6.83536 9.70863 6.83536 8.9098C6.84898 8.11098 6.21883 7.45621 5.43834 7.45621ZM10.4382 7.45621C9.65717 7.45621 9.04116 8.11098 9.04116 8.9098C9.04116 9.70863 9.67131 10.3634 10.4382 10.3634C11.2192 10.3634 11.8352 9.70863 11.8352 8.9098C11.8352 8.11098 11.2187 7.45621 10.4382 7.45621Z" fill="white"/>
</svg>
