<svg width="16" height="16" viewBox="0 0 16 16" fill="none" xmlns="http://www.w3.org/2000/svg">
<path d="M4.41776 3.26318C1.97791 3.26318 0 5.25475 0 7.71124C0 10.1677 1.97805 12.1593 4.41776 12.1593C6.85746 12.1593 8.83551 10.1679 8.83551 7.71124C8.83551 5.2546 6.8577 3.26318 4.41776 3.26318ZM11.4727 3.52375C10.2527 3.52375 9.26395 5.399 9.26395 7.71131C9.26395 10.0236 10.2529 11.899 11.4728 11.899C12.6928 11.899 13.6818 10.0237 13.6818 7.71131H13.6816C13.6816 5.39834 12.6928 3.52375 11.4728 3.52375H11.4727ZM14.8871 3.95992C14.4582 3.95992 14.1104 5.63959 14.1104 7.71131C14.1104 9.78303 14.458 11.4627 14.8871 11.4627C15.3163 11.4627 15.6641 9.78259 15.6641 7.71124C15.6641 5.63945 15.3161 3.95992 14.8872 3.95992H14.8871Z" fill="white"/>
</svg>
