<svg width="21" height="14" viewBox="0 0 21 14" fill="none" xmlns="http://www.w3.org/2000/svg">
<path d="M6.34501 7L0.333008 10.9144V3.0856L6.34501 7ZM14.001 7L20.013 10.9144V3.0856L14.001 7ZM13.1226 7.5736L10.4346 9.3232C10.3554 9.3736 10.2642 9.4 10.173 9.4C10.0818 9.4 9.99061 9.3736 9.91141 9.3232L7.22341 7.5736L0.731408 11.8L0.354608 12.0448C0.472208 12.7216 1.06261 13.24 1.77301 13.24H18.573C19.2834 13.24 19.8738 12.724 19.9914 12.0448L19.6122 11.8L13.1226 7.5736ZM10.173 8.3464L19.6122 2.2L19.9914 1.9552C19.8738 1.276 19.2834 0.76 18.573 0.76H1.77301C1.06261 0.76 0.472208 1.2784 0.354608 1.9552L0.731408 2.2L10.173 8.3464Z" fill="#8C8C8C"/>
</svg>
