<svg width="16" height="16" viewBox="0 0 16 16" fill="none" xmlns="http://www.w3.org/2000/svg">
<path d="M1.8583 7.22604C1.8583 7.22604 8.05017 4.59178 10.1976 3.66423C11.0208 3.29321 13.8125 2.10594 13.8125 2.10594C13.8125 2.10594 15.101 1.58651 14.9936 2.84798C14.9579 3.36741 14.6715 5.18542 14.3852 7.15183C13.9557 9.93449 13.4904 12.9769 13.4904 12.9769C13.4904 12.9769 13.4188 13.8302 12.8104 13.9786C12.2019 14.127 11.1998 13.4592 11.0208 13.3108C10.8777 13.1995 8.3365 11.5299 7.40593 10.7136C7.15539 10.491 6.86906 10.0458 7.44172 9.52637C8.7302 8.302 10.2692 6.78081 11.1998 5.81615C11.6293 5.37093 12.0588 4.33207 10.2692 5.59354C7.72805 7.41155 5.22267 9.11825 5.22267 9.11825C5.22267 9.11825 4.65001 9.48927 3.57628 9.15535C2.50255 8.82143 1.24986 8.3762 1.24986 8.3762C1.24986 8.3762 0.390869 7.81967 1.8583 7.22604Z" fill="white"/>
</svg>
