<svg width="16" height="16" viewBox="0 0 16 16" fill="none" xmlns="http://www.w3.org/2000/svg">
<path d="M14.0067 4.63235C13.9354 10.2132 10.5278 14.0362 5.44091 14.2771C3.34337 14.3775 1.82317 13.6679 0.5 12.7871C2.05038 13.0472 3.97395 12.3974 5.00187 11.476C3.48167 11.3212 2.58163 10.5112 2.16069 9.20721C2.60029 9.28569 3.06293 9.26593 3.48057 9.17263C2.10855 8.69188 1.12948 7.80445 1.07844 5.944C1.46316 6.1273 1.86488 6.29908 2.39723 6.3331C1.37041 5.72173 0.611957 3.48699 1.48127 2.00905C3.00421 3.757 4.83613 5.18445 7.84524 5.37818C7.09008 1.99588 11.3691 0.161764 13.1599 2.43492C13.9167 2.28181 14.533 1.98051 15.1263 1.65342C14.8815 2.43931 14.4117 2.98702 13.8393 3.42662C14.4677 3.33771 15.0253 3.17691 15.5 2.93105C15.2058 3.5715 14.561 4.14775 14.0067 4.63235Z" fill="white"/>
</svg>
